<mxfile host="Electron" agent="Mozilla/5.0 (Windows NT 10.0; Win64; x64) AppleWebKit/537.36 (KHTML, like Gecko) draw.io/26.1.1 Chrome/132.0.6834.210 Electron/34.3.3 Safari/537.36" version="26.1.1">
  <diagram name="第 1 页" id="fooZARCtMGak9TJI7Fph">
    <mxGraphModel dx="2165" dy="1989" grid="1" gridSize="10" guides="1" tooltips="1" connect="1" arrows="1" fold="1" page="1" pageScale="1" pageWidth="827" pageHeight="1169" math="0" shadow="0">
      <root>
        <mxCell id="0" />
        <mxCell id="1" parent="0" />
        <mxCell id="4a5bdP1wSf8N1KHF2W9y-1" value="" style="shape=cube;whiteSpace=wrap;html=1;boundedLbl=1;backgroundOutline=1;darkOpacity=0.05;darkOpacity2=0.1;rotation=0;" vertex="1" parent="1">
          <mxGeometry x="-60" y="160" width="110" height="100" as="geometry" />
        </mxCell>
        <mxCell id="4a5bdP1wSf8N1KHF2W9y-3" value="" style="shape=cube;whiteSpace=wrap;html=1;boundedLbl=1;backgroundOutline=1;darkOpacity=0.05;darkOpacity2=0.1;" vertex="1" parent="1">
          <mxGeometry x="170" y="60" width="600" height="520" as="geometry" />
        </mxCell>
        <mxCell id="4a5bdP1wSf8N1KHF2W9y-4" value="" style="shape=cube;whiteSpace=wrap;html=1;boundedLbl=1;backgroundOutline=1;darkOpacity=0.05;darkOpacity2=0.1;rotation=0;" vertex="1" parent="1">
          <mxGeometry x="890" y="300" width="110" height="100" as="geometry" />
        </mxCell>
        <mxCell id="4a5bdP1wSf8N1KHF2W9y-5" value="" style="shape=cube;whiteSpace=wrap;html=1;boundedLbl=1;backgroundOutline=1;darkOpacity=0.05;darkOpacity2=0.1;rotation=0;" vertex="1" parent="1">
          <mxGeometry x="260" y="-150" width="110" height="100" as="geometry" />
        </mxCell>
        <mxCell id="4a5bdP1wSf8N1KHF2W9y-6" value="" style="shape=cube;whiteSpace=wrap;html=1;boundedLbl=1;backgroundOutline=1;darkOpacity=0.05;darkOpacity2=0.1;rotation=0;" vertex="1" parent="1">
          <mxGeometry x="565" y="-150" width="110" height="100" as="geometry" />
        </mxCell>
        <mxCell id="4a5bdP1wSf8N1KHF2W9y-7" value="Java客户端" style="text;html=1;align=center;verticalAlign=middle;whiteSpace=wrap;rounded=0;" vertex="1" parent="1">
          <mxGeometry x="-25" y="205" width="65" height="30" as="geometry" />
        </mxCell>
        <mxCell id="4a5bdP1wSf8N1KHF2W9y-8" value="Web浏览器" style="text;html=1;align=center;verticalAlign=middle;whiteSpace=wrap;rounded=0;" vertex="1" parent="1">
          <mxGeometry x="-30" y="405" width="70" height="30" as="geometry" />
        </mxCell>
        <mxCell id="4a5bdP1wSf8N1KHF2W9y-9" value="MySQL" style="text;html=1;align=center;verticalAlign=middle;whiteSpace=wrap;rounded=0;" vertex="1" parent="1">
          <mxGeometry x="930" y="340" width="60" height="30" as="geometry" />
        </mxCell>
        <mxCell id="4a5bdP1wSf8N1KHF2W9y-10" value="OSS" style="text;html=1;align=center;verticalAlign=middle;whiteSpace=wrap;rounded=0;" vertex="1" parent="1">
          <mxGeometry x="300" y="-100" width="60" height="30" as="geometry" />
        </mxCell>
        <mxCell id="4a5bdP1wSf8N1KHF2W9y-11" value="AliPay" style="text;html=1;align=center;verticalAlign=middle;whiteSpace=wrap;rounded=0;" vertex="1" parent="1">
          <mxGeometry x="610" y="-100" width="60" height="30" as="geometry" />
        </mxCell>
        <mxCell id="4a5bdP1wSf8N1KHF2W9y-14" value="" style="endArrow=none;html=1;rounded=0;exitX=0;exitY=0;exitDx=110;exitDy=60;exitPerimeter=0;" edge="1" parent="1">
          <mxGeometry width="50" height="50" relative="1" as="geometry">
            <mxPoint x="50" y="219.5" as="sourcePoint" />
            <mxPoint x="169" y="219.5" as="targetPoint" />
          </mxGeometry>
        </mxCell>
        <mxCell id="4a5bdP1wSf8N1KHF2W9y-15" value="" style="endArrow=none;html=1;rounded=0;exitX=0;exitY=0;exitDx=110;exitDy=60;exitPerimeter=0;" edge="1" parent="1">
          <mxGeometry width="50" height="50" relative="1" as="geometry">
            <mxPoint x="45" y="419.5" as="sourcePoint" />
            <mxPoint x="164" y="419.5" as="targetPoint" />
          </mxGeometry>
        </mxCell>
        <mxCell id="4a5bdP1wSf8N1KHF2W9y-16" value="" style="endArrow=none;html=1;rounded=0;exitX=1.003;exitY=0.554;exitDx=0;exitDy=0;exitPerimeter=0;entryX=0;entryY=0.48;entryDx=0;entryDy=0;entryPerimeter=0;" edge="1" parent="1" source="4a5bdP1wSf8N1KHF2W9y-3" target="4a5bdP1wSf8N1KHF2W9y-4">
          <mxGeometry width="50" height="50" relative="1" as="geometry">
            <mxPoint x="830" y="349.5" as="sourcePoint" />
            <mxPoint x="949" y="349.5" as="targetPoint" />
          </mxGeometry>
        </mxCell>
        <mxCell id="4a5bdP1wSf8N1KHF2W9y-19" value="SBEAM商城" style="text;html=1;align=center;verticalAlign=middle;whiteSpace=wrap;rounded=0;" vertex="1" parent="1">
          <mxGeometry x="460" y="100" width="100" height="30" as="geometry" />
        </mxCell>
        <mxCell id="4a5bdP1wSf8N1KHF2W9y-20" value="Node.js" style="whiteSpace=wrap;html=1;align=center;" vertex="1" parent="1">
          <mxGeometry x="590" y="200" width="100" height="40" as="geometry" />
        </mxCell>
        <mxCell id="4a5bdP1wSf8N1KHF2W9y-21" value="EL" style="whiteSpace=wrap;html=1;align=center;" vertex="1" parent="1">
          <mxGeometry x="230" y="200" width="100" height="40" as="geometry" />
        </mxCell>
        <mxCell id="4a5bdP1wSf8N1KHF2W9y-22" value="Vue" style="whiteSpace=wrap;html=1;align=center;" vertex="1" parent="1">
          <mxGeometry x="414" y="200" width="100" height="40" as="geometry" />
        </mxCell>
        <mxCell id="4a5bdP1wSf8N1KHF2W9y-23" value="SpringBoot" style="whiteSpace=wrap;html=1;align=center;" vertex="1" parent="1">
          <mxGeometry x="590" y="400" width="100" height="40" as="geometry" />
        </mxCell>
        <mxCell id="4a5bdP1wSf8N1KHF2W9y-24" value="Http服务" style="whiteSpace=wrap;html=1;align=center;" vertex="1" parent="1">
          <mxGeometry x="230" y="400" width="100" height="40" as="geometry" />
        </mxCell>
        <mxCell id="4a5bdP1wSf8N1KHF2W9y-25" value="" style="shape=cube;whiteSpace=wrap;html=1;boundedLbl=1;backgroundOutline=1;darkOpacity=0.05;darkOpacity2=0.1;rotation=0;" vertex="1" parent="1">
          <mxGeometry x="409" y="-150" width="110" height="100" as="geometry" />
        </mxCell>
        <mxCell id="4a5bdP1wSf8N1KHF2W9y-26" value="" style="endArrow=none;html=1;rounded=0;entryX=0;entryY=0;entryDx=65;entryDy=100;entryPerimeter=0;exitX=0.764;exitY=-0.002;exitDx=0;exitDy=0;exitPerimeter=0;" edge="1" parent="1">
          <mxGeometry width="50" height="50" relative="1" as="geometry">
            <mxPoint x="469.5" y="59" as="sourcePoint" />
            <mxPoint x="470.5" y="-50" as="targetPoint" />
          </mxGeometry>
        </mxCell>
        <mxCell id="4a5bdP1wSf8N1KHF2W9y-27" value="NATAPP" style="text;html=1;align=center;verticalAlign=middle;whiteSpace=wrap;rounded=0;" vertex="1" parent="1">
          <mxGeometry x="454" y="-100" width="60" height="30" as="geometry" />
        </mxCell>
        <mxCell id="4a5bdP1wSf8N1KHF2W9y-28" value="" style="endArrow=none;dashed=1;html=1;dashPattern=1 3;strokeWidth=2;rounded=0;exitX=1;exitY=0.5;exitDx=0;exitDy=0;entryX=0;entryY=0.5;entryDx=0;entryDy=0;" edge="1" parent="1" source="4a5bdP1wSf8N1KHF2W9y-21" target="4a5bdP1wSf8N1KHF2W9y-22">
          <mxGeometry width="50" height="50" relative="1" as="geometry">
            <mxPoint x="420" y="510" as="sourcePoint" />
            <mxPoint x="470" y="460" as="targetPoint" />
          </mxGeometry>
        </mxCell>
        <mxCell id="4a5bdP1wSf8N1KHF2W9y-29" value="axio请求" style="whiteSpace=wrap;html=1;align=center;" vertex="1" parent="1">
          <mxGeometry x="414" y="400" width="100" height="40" as="geometry" />
        </mxCell>
        <mxCell id="4a5bdP1wSf8N1KHF2W9y-30" value="" style="endArrow=none;dashed=1;html=1;dashPattern=1 3;strokeWidth=2;rounded=0;exitX=1;exitY=0.5;exitDx=0;exitDy=0;entryX=0;entryY=0.5;entryDx=0;entryDy=0;" edge="1" parent="1" source="4a5bdP1wSf8N1KHF2W9y-24" target="4a5bdP1wSf8N1KHF2W9y-29">
          <mxGeometry width="50" height="50" relative="1" as="geometry">
            <mxPoint x="420" y="510" as="sourcePoint" />
            <mxPoint x="470" y="460" as="targetPoint" />
          </mxGeometry>
        </mxCell>
        <mxCell id="4a5bdP1wSf8N1KHF2W9y-31" value="" style="endArrow=none;dashed=1;html=1;dashPattern=1 3;strokeWidth=2;rounded=0;entryX=0.5;entryY=1;entryDx=0;entryDy=0;" edge="1" parent="1" source="4a5bdP1wSf8N1KHF2W9y-29" target="4a5bdP1wSf8N1KHF2W9y-22">
          <mxGeometry width="50" height="50" relative="1" as="geometry">
            <mxPoint x="420" y="510" as="sourcePoint" />
            <mxPoint x="470" y="460" as="targetPoint" />
          </mxGeometry>
        </mxCell>
        <mxCell id="4a5bdP1wSf8N1KHF2W9y-32" value="" style="endArrow=none;dashed=1;html=1;dashPattern=1 3;strokeWidth=2;rounded=0;entryX=1;entryY=0.5;entryDx=0;entryDy=0;exitX=0;exitY=0.5;exitDx=0;exitDy=0;" edge="1" parent="1" source="4a5bdP1wSf8N1KHF2W9y-20" target="4a5bdP1wSf8N1KHF2W9y-29">
          <mxGeometry width="50" height="50" relative="1" as="geometry">
            <mxPoint x="420" y="510" as="sourcePoint" />
            <mxPoint x="470" y="460" as="targetPoint" />
          </mxGeometry>
        </mxCell>
        <mxCell id="4a5bdP1wSf8N1KHF2W9y-33" value="" style="endArrow=none;dashed=1;html=1;dashPattern=1 3;strokeWidth=2;rounded=0;entryX=0.5;entryY=1;entryDx=0;entryDy=0;" edge="1" parent="1" source="4a5bdP1wSf8N1KHF2W9y-23" target="4a5bdP1wSf8N1KHF2W9y-20">
          <mxGeometry width="50" height="50" relative="1" as="geometry">
            <mxPoint x="420" y="510" as="sourcePoint" />
            <mxPoint x="470" y="460" as="targetPoint" />
          </mxGeometry>
        </mxCell>
        <mxCell id="4a5bdP1wSf8N1KHF2W9y-34" value="" style="endArrow=none;html=1;rounded=0;entryX=0;entryY=0;entryDx=65;entryDy=100;entryPerimeter=0;exitX=0.764;exitY=-0.002;exitDx=0;exitDy=0;exitPerimeter=0;" edge="1" parent="1">
          <mxGeometry width="50" height="50" relative="1" as="geometry">
            <mxPoint x="320" y="59" as="sourcePoint" />
            <mxPoint x="321" y="-50" as="targetPoint" />
          </mxGeometry>
        </mxCell>
        <mxCell id="4a5bdP1wSf8N1KHF2W9y-2" value="" style="shape=cube;whiteSpace=wrap;html=1;boundedLbl=1;backgroundOutline=1;darkOpacity=0.05;darkOpacity2=0.1;rotation=0;" vertex="1" parent="1">
          <mxGeometry x="-60" y="360" width="110" height="100" as="geometry" />
        </mxCell>
        <mxCell id="4a5bdP1wSf8N1KHF2W9y-35" value="" style="endArrow=none;html=1;rounded=0;entryX=0;entryY=0;entryDx=65;entryDy=100;entryPerimeter=0;exitX=0.764;exitY=-0.002;exitDx=0;exitDy=0;exitPerimeter=0;" edge="1" parent="1">
          <mxGeometry width="50" height="50" relative="1" as="geometry">
            <mxPoint x="629.5" y="60" as="sourcePoint" />
            <mxPoint x="630.5" y="-49" as="targetPoint" />
          </mxGeometry>
        </mxCell>
        <mxCell id="4a5bdP1wSf8N1KHF2W9y-36" value="浏览器" style="text;strokeColor=none;fillColor=none;align=left;verticalAlign=middle;spacingLeft=4;spacingRight=4;overflow=hidden;points=[[0,0.5],[1,0.5]];portConstraint=eastwest;rotatable=0;whiteSpace=wrap;html=1;" vertex="1" parent="1">
          <mxGeometry x="-25" y="405" width="80" height="30" as="geometry" />
        </mxCell>
        <mxCell id="4a5bdP1wSf8N1KHF2W9y-37" value="" style="verticalLabelPosition=bottom;verticalAlign=top;html=1;shape=mxgraph.basic.banner" vertex="1" parent="1">
          <mxGeometry x="280" y="-220" width="370" height="60" as="geometry" />
        </mxCell>
        <mxCell id="4a5bdP1wSf8N1KHF2W9y-38" value="体系结构的部署图" style="text;html=1;align=center;verticalAlign=middle;whiteSpace=wrap;rounded=0;" vertex="1" parent="1">
          <mxGeometry x="414" y="-210" width="100" height="30" as="geometry" />
        </mxCell>
      </root>
    </mxGraphModel>
  </diagram>
</mxfile>
